<svg width="12" height="12" viewBox="0 0 12 12" fill="none" xmlns="http://www.w3.org/2000/svg">
<path d="M8.25977 4.67383H10.5098V2.42383" stroke="#188475" stroke-width="0.75" stroke-linecap="round" stroke-linejoin="round"/>
<path d="M3.08398 3.08443C3.46667 2.70118 3.92115 2.39714 4.42145 2.1897C4.92174 1.98226 5.45802 1.87549 5.99961 1.87549C6.5412 1.87549 7.07748 1.98226 7.57777 2.1897C8.07806 2.39714 8.53255 2.70118 8.91523 3.08443L10.509 4.67349" stroke="#188475" stroke-width="0.75" stroke-linecap="round" stroke-linejoin="round"/>
<path d="M3.74023 7.32617H1.49023V9.57617" stroke="#188475" stroke-width="0.75" stroke-linecap="round" stroke-linejoin="round"/>
<path d="M8.91523 8.91523C8.53255 9.29848 8.07806 9.60252 7.57777 9.80996C7.07748 10.0174 6.5412 10.1242 5.99961 10.1242C5.45802 10.1242 4.92174 10.0174 4.42145 9.80996C3.92115 9.60252 3.46667 9.29848 3.08398 8.91523L1.49023 7.32617" stroke="#188475" stroke-width="0.75" stroke-linecap="round" stroke-linejoin="round"/>
</svg>
